PathFileType	4	(X/Y/Z)	 3.0Hz3min.trc
DataRate	CameraRate	NumFrames	NumMarkers	Units	OrigDataRate	OrigDataStartFrame	OrigNumFrames
200	200	9	43	m	200	749	998
Frame#	Time	C7			LSH			RSH			MAN			RASI			LASI			HIPR			HIPL			RPSI			LPSI			COX			RTHI1			RTHI2			RTHI3			RTHI4			RLKN			RMKN			RSHA1			RSHA2			RSHA3			RSHA4			RLMAL			RMMAL			RHEEL			RMET5			RMET1			RTOE			LTHI1			LTHI2			LTHI3			LTHI4			LLKN			LMKN			LSHA1			LSHA2			LSHA3			LSHA4			LLMAL			LMMAL			LHEEL			LMET5			LMET1			LTOE			
		X1	Y1	Z1	X2	Y2	Z2	X3	Y3	Z3	X4	Y4	Z4	X5	Y5	Z5	X6	Y6	Z6	X7	Y7	Z7	X8	Y8	Z8	X9	Y9	Z9	X10	Y10	Z10	X11	Y11	Z11	X12	Y12	Z12	X13	Y13	Z13	X14	Y14	Z14	X15	Y15	Z15	X16	Y16	Z16	X17	Y17	Z17	X18	Y18	Z18	X19	Y19	Z19	X20	Y20	Z20	X21	Y21	Z21	X22	Y22	Z22	X23	Y23	Z23	X24	Y24	Z24	X25	Y25	Z25	X26	Y26	Z26	X27	Y27	Z27	X28	Y28	Z28	X29	Y29	Z29	X30	Y30	Z30	X31	Y31	Z31	X32	Y32	Z32	X33	Y33	Z33	X34	Y34	Z34	X35	Y35	Z35	X36	Y36	Z36	X37	Y37	Z37	X38	Y38	Z38	X39	Y39	Z39	X40	Y40	Z40	X41	Y41	Z41	X42	Y42	Z42	X43	Y43	Z43	
749	3.7450	-0.235966	1.431870	-0.557790	-0.153631	1.421975	-0.696320	-0.172722	1.411138	-0.402357	-0.116983	1.369228	-0.547191	-0.106122	0.937498	-0.442249	-0.108533	0.943794	-0.668514	-0.165882	1.013862	-0.411339	-0.174257	0.999207	-0.701532	-0.267572	0.995414	-0.500375	-0.271299	0.990816	-0.585301	-0.272616	0.992666	-0.547524	-0.240373	0.767660	-0.383190	-0.228305	0.709775	-0.374338	-0.166584	0.720401	-0.358459	-0.170037	0.781589	-0.365991	-0.217839	0.526240	-0.373572	-0.184997	0.494789	-0.500561	-0.303884	0.403814	-0.366822	-0.308805	0.362336	-0.377815	-0.251298	0.394310	-0.349240	-0.253030	0.354842	-0.354070	-0.297614	0.155588	-0.378167	-0.257329	0.160800	-0.450953	-0.341491	0.154790	-0.433402	-0.231791	0.065128	-0.339336	-0.183119	0.060289	-0.397944	-0.165431	0.050777	-0.387909	-0.227338	0.759913	-0.732771	-0.214757	0.699986	-0.740815	-0.150431	0.708314	-0.746464	-0.155699	0.767790	-0.740357	-0.216987	0.516623	-0.735994	-0.184191	0.497059	-0.613659	-0.297445	0.360109	-0.738384	-0.301114	0.319982	-0.729952	-0.244291	0.315648	-0.752020	-0.247206	0.359213	-0.758275	-0.276151	0.155094	-0.742249	-0.243195	0.166408	-0.665742	-0.325760	0.151626	-0.681114	-0.216771	0.070909	-0.770754	-0.167930	0.064873	-0.712520	-0.150799	0.052220	-0.722149	
750	3.7500	-0.235676	1.431844	-0.557690	-0.153328	1.421800	-0.696712	-0.172272	1.411002	-0.402128	-0.116652	1.369223	-0.547260	-0.106313	0.937378	-0.442268	-0.108644	0.943767	-0.668552	-0.166098	1.013595	-0.411447	-0.174326	0.999145	-0.701508	-0.267729	0.995036	-0.500497	-0.271553	0.990606	-0.585405	-0.272857	0.992477	-0.547612	-0.239992	0.767376	-0.383293	-0.227637	0.709634	-0.374289	-0.165965	0.720511	-0.358621	-0.169701	0.781661	-0.366266	-0.216534	0.526090	-0.373507	-0.184039	0.494906	-0.500474	-0.303078	0.403913	-0.366528	-0.308158	0.362478	-0.377636	-0.250382	0.394140	-0.349282	-0.252265	0.354707	-0.354218	-0.297663	0.155630	-0.378529	-0.257795	0.160917	-0.451549	-0.341942	0.154467	-0.433684	-0.231257	0.066110	-0.339629	-0.182801	0.061251	-0.398323	-0.165015	0.051947	-0.388276	-0.226963	0.759645	-0.732965	-0.214245	0.699732	-0.740994	-0.149928	0.708202	-0.746541	-0.155325	0.767673	-0.740452	-0.216152	0.516482	-0.736241	-0.183513	0.496927	-0.613862	-0.297160	0.360388	-0.738663	-0.301101	0.320299	-0.730270	-0.244126	0.315672	-0.751914	-0.246797	0.359239	-0.758212	-0.276361	0.155179	-0.742062	-0.243459	0.166538	-0.665506	-0.326106	0.151479	-0.680943	-0.216750	0.071527	-0.770749	-0.167879	0.065539	-0.712615	-0.150668	0.053027	-0.722280	
751	3.7550	-0.235393	1.431659	-0.557700	-0.153006	1.421392	-0.697129	-0.171821	1.410603	-0.401882	-0.116308	1.368985	-0.547348	-0.106512	0.937001	-0.442290	-0.108769	0.943488	-0.668620	-0.166343	1.013031	-0.411560	-0.174436	0.998784	-0.701493	-0.267903	0.994306	-0.500627	-0.271840	0.990064	-0.585521	-0.273128	0.991950	-0.547705	-0.239564	0.766859	-0.383344	-0.226948	0.709259	-0.374174	-0.165297	0.720383	-0.358773	-0.169321	0.781506	-0.366533	-0.215275	0.525733	-0.373462	-0.183101	0.494853	-0.500397	-0.302278	0.403804	-0.366312	-0.307553	0.362426	-0.377460	-0.249484	0.393782	-0.349349	-0.251552	0.354383	-0.354331	-0.297708	0.155470	-0.378858	-0.258298	0.160858	-0.452142	-0.342427	0.153971	-0.433907	-0.230708	0.066769	-0.340073	-0.182544	0.061975	-0.398904	-0.164640	0.052872	-0.388895	-0.226558	0.759046	-0.733184	-0.213651	0.699156	-0.741162	-0.149353	0.707817	-0.746605	-0.154930	0.767277	-0.740571	-0.215379	0.516139	-0.736494	-0.182717	0.496606	-0.614113	-0.296898	0.360435	-0.738962	-0.301120	0.320391	-0.730672	-0.243964	0.315484	-0.751842	-0.246415	0.359060	-0.758170	-0.276642	0.155039	-0.741898	-0.243843	0.166476	-0.665282	-0.326591	0.151169	-0.680867	-0.216742	0.071933	-0.770703	-0.167911	0.065995	-0.712524	-0.150625	0.053594	-0.722208	
752	3.7600	-0.235090	1.431294	-0.557797	-0.152660	1.420738	-0.697549	-0.171366	1.409948	-0.401634	-0.115948	1.368508	-0.547454	-0.106711	0.936373	-0.442317	-0.108911	0.942957	-0.668711	-0.166601	1.012187	-0.411679	-0.174582	0.998137	-0.701497	-0.268098	0.993260	-0.500767	-0.272157	0.989200	-0.585631	-0.273425	0.991116	-0.547801	-0.239089	0.766119	-0.383348	-0.226246	0.708650	-0.373999	-0.164588	0.719998	-0.358914	-0.168903	0.781114	-0.366778	-0.214056	0.525155	-0.373415	-0.182223	0.494609	-0.500349	-0.301484	0.403461	-0.366189	-0.306956	0.362160	-0.377316	-0.248615	0.393239	-0.349427	-0.250911	0.353847	-0.354449	-0.297751	0.155100	-0.379170	-0.258827	0.160606	-0.452733	-0.342929	0.153292	-0.434067	-0.230142	0.067134	-0.340638	-0.182314	0.062430	-0.399662	-0.164280	0.053508	-0.389738	-0.226138	0.758129	-0.733433	-0.212997	0.698273	-0.741323	-0.148720	0.707164	-0.746649	-0.154522	0.766616	-0.740702	-0.214675	0.515594	-0.736743	-0.181842	0.496092	-0.614407	-0.296676	0.360228	-0.739269	-0.301193	0.320243	-0.731141	-0.243828	0.315075	-0.751810	-0.246080	0.358663	-0.758159	-0.276992	0.154670	-0.741751	-0.244368	0.166207	-0.665078	-0.327207	0.150684	-0.680885	-0.216784	0.072024	-0.770524	-0.168040	0.066245	-0.712292	-0.150668	0.053957	-0.721989	
753	3.7650	-0.234750	1.430729	-0.557944	-0.152286	1.419828	-0.697967	-0.170905	1.409021	-0.401384	-0.115571	1.367769	-0.547573	-0.106902	0.935507	-0.442353	-0.109061	0.942184	-0.668818	-0.166863	1.011086	-0.411807	-0.174743	0.997217	-0.701513	-0.268315	0.991935	-0.500912	-0.272492	0.988047	-0.585743	-0.273742	0.989998	-0.547912	-0.238606	0.765157	-0.383251	-0.225546	0.707796	-0.373768	-0.163855	0.719355	-0.359040	-0.168455	0.780473	-0.366992	-0.212887	0.524363	-0.373352	-0.181423	0.494134	-0.500329	-0.300704	0.402899	-0.366108	-0.306389	0.361674	-0.377156	-0.247785	0.392498	-0.349514	-0.250320	0.353103	-0.354554	-0.297810	0.154496	-0.379492	-0.259363	0.160159	-0.453319	-0.343435	0.152405	-0.434174	-0.229519	0.067228	-0.341329	-0.182085	0.062699	-0.400602	-0.163934	0.053930	-0.390753	-0.225712	0.756924	-0.733715	-0.212293	0.697117	-0.741473	-0.148049	0.706259	-0.746667	-0.154114	0.765696	-0.740834	-0.214041	0.514840	-0.736986	-0.180921	0.495381	-0.614740	-0.296508	0.359765	-0.739567	-0.301339	0.319852	-0.731661	-0.243738	0.314443	-0.751820	-0.245810	0.358038	-0.758188	-0.277406	0.154071	-0.741621	-0.245022	0.165744	-0.664883	-0.327948	0.150009	-0.680984	-0.216851	0.071842	-0.770276	-0.168251	0.066267	-0.711923	-0.150769	0.054089	-0.721605	
754	3.7700	-0.234351	1.429895	-0.557997	-0.151905	1.418652	-0.698377	-0.170444	1.407840	-0.401189	-0.115163	1.366751	-0.547682	-0.107080	0.934401	-0.442396	-0.109216	0.941168	-0.668937	-0.167123	1.009743	-0.411943	-0.174921	0.996021	-0.701534	-0.268557	0.990365	-0.501061	-0.272835	0.986619	-0.585852	-0.274066	0.988623	-0.548027	-0.238122	0.763975	-0.383072	-0.224860	0.706691	-0.373504	-0.163115	0.718448	-0.359144	-0.167988	0.779570	-0.367166	-0.211768	0.523349	-0.373280	-0.180702	0.493401	-0.500333	-0.299944	0.402126	-0.366023	-0.305782	0.360983	-0.377062	-0.247006	0.391539	-0.349608	-0.249773	0.352142	-0.354650	-0.297884	0.153648	-0.379834	-0.259902	0.159486	-0.453902	-0.343930	0.151316	-0.434258	-0.228893	0.066976	-0.342099	-0.181841	0.062717	-0.401662	-0.163570	0.054110	-0.391904	-0.225289	0.755449	-0.734025	-0.211573	0.695691	-0.741625	-0.147358	0.705111	-0.746660	-0.153713	0.764529	-0.740959	-0.213469	0.513871	-0.737222	-0.179988	0.494470	-0.615109	-0.296403	0.359064	-0.739863	-0.301570	0.319242	-0.732221	-0.243710	0.313579	-0.751870	-0.245624	0.357183	-0.758264	-0.277873	0.153236	-0.741510	-0.245751	0.165079	-0.664702	-0.328784	0.149135	-0.681138	-0.216964	0.071385	-0.769944	-0.168526	0.066060	-0.711453	-0.150944	0.053933	-0.721083	
755	3.7750	-0.233899	1.428785	-0.557955	-0.151530	1.417208	-0.698781	-0.169986	1.406405	-0.401018	-0.114728	1.365458	-0.547785	-0.107239	0.933069	-0.442448	-0.109371	0.939908	-0.669058	-0.167378	1.008166	-0.412085	-0.175110	0.994569	-0.701560	-0.268823	0.988580	-0.501214	-0.273178	0.984924	-0.585955	-0.274386	0.987002	-0.548150	-0.237643	0.762565	-0.382834	-0.224182	0.705341	-0.373228	-0.162378	0.717270	-0.359223	-0.167510	0.778406	-0.367292	-0.210726	0.522101	-0.373214	-0.180080	0.492394	-0.500359	-0.299226	0.401127	-0.365952	-0.305261	0.360071	-0.376962	-0.246284	0.390352	-0.349698	-0.249260	0.350959	-0.354750	-0.297949	0.152568	-0.380183	-0.260413	0.158589	-0.454477	-0.344401	0.150005	-0.434323	-0.228220	0.066443	-0.342955	-0.181583	0.062466	-0.402801	-0.163181	0.054009	-0.393174	-0.224878	0.753725	-0.734357	-0.210855	0.694026	-0.741789	-0.146672	0.703726	-0.746625	-0.153328	0.763120	-0.741072	-0.212944	0.512684	-0.737454	-0.179072	0.493350	-0.615502	-0.296366	0.358129	-0.740158	-0.301851	0.318377	-0.732728	-0.243756	0.312473	-0.751949	-0.245526	0.356094	-0.758376	-0.278384	0.152168	-0.741417	-0.246551	0.164179	-0.664542	-0.329662	0.148037	-0.681318	-0.217125	0.070600	-0.769561	-0.168886	0.065539	-0.710902	-0.151179	0.053538	-0.720493	
756	3.7800	-0.233435	1.427396	-0.557857	-0.151109	1.415488	-0.699150	-0.169524	1.404709	-0.400857	-0.114273	1.363892	-0.547880	-0.107378	0.931516	-0.442509	-0.109525	0.938400	-0.669179	-0.167621	1.006374	-0.412237	-0.175312	0.992853	-0.701589	-0.269106	0.986598	-0.501367	-0.273510	0.982981	-0.586053	-0.274692	0.985148	-0.548285	-0.237173	0.760931	-0.382552	-0.223526	0.703744	-0.372948	-0.161666	0.715827	-0.359278	-0.167028	0.776973	-0.367369	-0.209757	0.520624	-0.373151	-0.179542	0.491113	-0.500419	-0.298574	0.399895	-0.365895	-0.304760	0.358892	-0.376891	-0.245614	0.388926	-0.349790	-0.248781	0.349540	-0.354859	-0.298013	0.151233	-0.380558	-0.260888	0.157435	-0.455039	-0.344826	0.148479	-0.434385	-0.227550	0.065545	-0.343847	-0.181321	0.061892	-0.403977	-0.162775	0.053589	-0.394518	-0.224489	0.751771	-0.734699	-0.210161	0.692136	-0.741948	-0.146009	0.702107	-0.746567	-0.152959	0.761487	-0.741176	-0.212451	0.511267	-0.737678	-0.178194	0.492004	-0.615905	-0.296388	0.356947	-0.740428	-0.302170	0.317254	-0.733164	-0.243875	0.311135	-0.752051	-0.245511	0.354763	-0.758518	-0.278936	0.150858	-0.741340	-0.247388	0.163046	-0.664403	-0.330552	0.146725	-0.681488	-0.217364	0.069455	-0.769126	-0.169331	0.064722	-0.710319	-0.151522	0.052799	-0.719837	
757	3.7850	-0.232961	1.425721	-0.557710	-0.150679	1.413528	-0.699496	-0.169074	1.402785	-0.400696	-0.113811	1.362060	-0.547966	-0.107496	0.929738	-0.442579	-0.109669	0.936641	-0.669294	-0.167844	1.004379	-0.412402	-0.175521	0.990885	-0.701615	-0.269394	0.984429	-0.501517	-0.273812	0.980804	-0.586164	-0.274972	0.983065	-0.548432	-0.236724	0.759064	-0.382236	-0.222903	0.701906	-0.372669	-0.160991	0.714123	-0.359306	-0.166554	0.775267	-0.367396	-0.208882	0.518905	-0.373107	-0.179087	0.489538	-0.500491	-0.297976	0.398422	-0.365837	-0.304323	0.357456	-0.376800	-0.244993	0.387251	-0.349890	-0.248317	0.347875	-0.354966	-0.298064	0.149644	-0.380955	-0.261294	0.156030	-0.455582	-0.345187	0.146745	-0.434467	-0.226914	0.064324	-0.344783	-0.181051	0.061038	-0.405186	-0.162391	0.052859	-0.395858	-0.224125	0.749608	-0.735037	-0.209508	0.690030	-0.742098	-0.145383	0.700265	-0.746500	-0.152614	0.759632	-0.741272	-0.211976	0.509609	-0.737899	-0.177369	0.490421	-0.616309	-0.296457	0.355531	-0.740677	-0.302480	0.315882	-0.733517	-0.244057	0.309568	-0.752172	-0.245556	0.353197	-0.758686	-0.279522	0.149309	-0.741280	-0.248246	0.161661	-0.664287	-0.331432	0.145213	-0.681632	-0.217725	0.067925	-0.768645	-0.169876	0.063564	-0.709723	-0.151979	0.051692	-0.719157	
